<svg xmlns="http://www.w3.org/2000/svg" viewBox="0 0 378.94 232.42"><defs><style>.cls-1{fill:#4a72b8;}.cls-2{font-size:49.89px;fill:#231f20;font-family:MicrosoftYaHeiUI-Bold, Microsoft YaHei UI;font-weight:700;}.cls-3{fill:#fff;}.cls-4,.cls-5{fill:#ed1c24;}.cls-5{letter-spacing:-0.01em;}</style></defs><g id="Layer_2" data-name="Layer 2"><g id="Layer_1-2" data-name="Layer 1"><path class="cls-1" d="M0,109.59Q0,55.9,0,2.22C0,.41.43,0,2.23,0Q22.4.12,42.59,0c1.51,0,2,.32,2,1.91-.1,6,0,12.08-.09,18.11,0,1.8.57,2.09,2.18,2.09,13.39-.06,26.78,0,40.17-.08,1.5,0,1.85.43,1.83,1.86-.08,6.23,0,12.45-.07,18.68,0,1.54.35,2,1.93,2,13.38-.07,26.77,0,40.16-.07,1.56,0,2.13.25,2.09,2-.14,5.22,0,10.45-.09,15.68,0,1.52.46,1.82,1.87,1.81,13.33,0,26.66,0,40-.07,1.55,0,2,.38,1.94,1.94-.13,3.55,0,7.1-.08,10.64,0,1.59.3,2.08,2,2.07,13.32-.08,26.65,0,40-.08,1.59,0,2.2.25,2.19,2.07q-.12,28.84,0,57.7c0,1.57-.41,1.94-2,1.93-13.45-.07-26.9,0-40.35-.07-1.43,0-1.92.31-1.87,1.82.12,3.61-.1,7.23.09,10.83.11,2.05-.62,2.37-2.47,2.36-13.08-.08-26.15,0-39.23-.08-1.75,0-2.14.48-2.11,2.15.11,5.41,0,10.83.07,16.24,0,1.46-.35,1.86-1.83,1.85-13.45-.06-26.91,0-40.36-.07-1.5,0-2,.29-2,1.91.11,5.84,0,11.7.09,17.55,0,1.6-.47,1.91-2,1.9-13.39-.06-26.78,0-40.17-.08-1.65,0-2.06.41-2,2.05.1,6.41,0,12.82.07,19.23,0,1.18-.27,1.58-1.53,1.58q-20.74-.08-41.48,0c-1.76,0-1.49-.95-1.49-2Q.06,163.46,0,109.59Z"/><text class="cls-2" transform="translate(12.34 129.08) scale(0.85 1)">Guide<tspan class="cls-3" x="147.45" y="0">Rad</tspan><tspan class="cls-4" x="244.25" y="0">P</tspan><tspan class="cls-5" x="277.04" y="0">R</tspan><tspan class="cls-4" x="311.32" y="0">OS</tspan></text><text/></g></g></svg>